<?xml version="1.0" encoding="iso-8859-1"?>
<!-- Generator: Adobe Illustrator 19.0.0, SVG Export Plug-In . SVG Version: 6.00 Build 0)  -->
<svg version="1.1" id="Capa_1" xmlns="http://www.w3.org/2000/svg" xmlns:xlink="http://www.w3.org/1999/xlink" x="0px" y="0px"
	 viewBox="0 0 475.57 475.57" style="enable-background:new 0 0 475.57 475.57;" xml:space="preserve">
<g>
	<g>
		<path d="M461.653,282.586l-4.923-0.985l-46.277,33.477c0,0-10.831,7.877-27.569-13.785c-11.815-15.754-11.815-23.631-11.815-25.6
			l44.308-36.431l0.985-2.954c0.985-3.938,0.985-8.861-1.969-13.785c-3.938-4.923-9.846-7.877-18.708-8.861
			c-15.754-1.969-52.185,9.846-56.123,10.831c-1.969,0.985-27.569,7.877-38.4,36.431c-0.985,2.954-1.969,5.908-2.954,8.861
			c-4.923,17.723-9.846,31.508-82.708,57.108c-87.631,31.508-160.492,66.954-161.477,66.954l-3.938,1.969L49.1,400.74
			c-0.985,1.969-9.846,49.231,27.569,71.877l3.938,2.954l240.246-97.477c0.984,0,15.754-5.908,53.169,7.877
			c40.369,14.769,67.939-8.862,76.8-23.631c1.969-3.938,18.708-33.477,22.646-50.215
			C478.392,293.416,467.561,284.555,461.653,282.586z M454.761,309.17c-2.954,11.816-15.754,36.431-20.677,44.308
			c-1.969,2.954-19.692,27.569-53.169,14.769c-45.292-17.723-64.985-8.862-66.954-7.877l-230.4,92.554
			c-16.739-12.8-16.739-33.477-15.754-43.323c17.723-7.877,80.738-36.431,154.584-63.015c76.8-27.569,87.631-44.308,95.508-69.908
			c0.985-2.954,1.969-4.923,2.954-7.877c6.892-19.692,23.631-24.615,24.615-24.615c12.8-2.954,34.461-8.862,45.292-9.846
			L356.3,261.908c-2.954,2.954-15.754,16.738,10.831,52.184c21.662,29.538,45.292,24.615,55.139,17.723l32.492-23.631V309.17z"/>
	</g>
</g>
<g>
	<g>
		<path d="M149.53,75.816c-40.369,0-72.862,32.492-72.862,72.862c0,40.369,32.492,72.861,72.862,72.861
			c40.369,0,72.861-32.492,72.861-72.861C222.392,108.308,189.9,75.816,149.53,75.816z M149.53,202.831
			c-29.538,0-53.169-23.631-53.169-53.169c0-29.539,23.631-53.169,53.169-53.169s53.169,23.631,53.169,53.169
			C202.7,179.201,179.069,202.831,149.53,202.831z"/>
	</g>
</g>
<g>
	<g>
		<path d="M297.223,183.139v-69.908h-40.369c-1.969-5.908-3.938-11.815-6.892-16.739l28.554-28.554l-49.231-49.231l-28.554,28.554
			c-5.908-2.954-10.831-4.923-16.739-6.892V0h-69.908v40.369c-5.908,1.969-11.815,3.939-16.739,6.892L68.792,18.708L19.561,67.939
			l28.554,28.554c-2.954,5.908-4.923,10.831-6.892,16.739H0.853v69.908h40.369c1.969,5.908,3.939,11.815,6.892,16.739
			l-28.554,28.554l49.231,49.231l28.554-28.554c5.908,2.954,10.831,4.923,16.739,6.892v40.369h69.908v-40.369
			c5.908-1.969,11.815-3.939,16.739-6.892l28.554,28.554l49.231-49.231l-28.554-28.554c2.954-5.908,4.923-10.831,6.892-16.739
			H297.223z M252.915,228.431l-21.661,21.662l-25.6-25.6l-6.892,3.938c-7.877,4.923-16.739,8.861-25.6,10.831l-7.877,1.969v35.446
			h-30.523v-35.446l-7.877-1.969c-8.861-2.954-17.723-5.908-25.6-10.831l-6.892-3.938l-25.6,25.6L47.13,228.431l25.6-25.6
			l-3.938-6.892c-4.923-7.877-8.862-16.739-10.831-25.6l-1.969-7.877H20.545v-30.523h35.446l1.969-7.877
			c2.954-8.861,5.908-17.723,10.831-25.6l3.938-6.892l-25.6-25.6l21.662-21.662l25.6,25.6l6.892-3.938
			c7.877-4.923,16.739-8.862,25.6-10.831l7.877-1.969V17.723h30.523v35.446l7.877,1.969c8.862,2.954,17.723,5.908,25.6,10.831
			l6.892,3.938l25.6-25.6l21.661,21.662l-25.6,25.6l3.938,6.892c4.923,7.877,8.862,16.739,10.831,25.6l1.969,7.877H279.5v30.523
			h-35.446l-1.969,7.877c-2.954,8.862-5.908,17.723-10.831,25.6l-3.938,6.892L252.915,228.431z"/>
	</g>
</g>
<g>
</g>
<g>
</g>
<g>
</g>
<g>
</g>
<g>
</g>
<g>
</g>
<g>
</g>
<g>
</g>
<g>
</g>
<g>
</g>
<g>
</g>
<g>
</g>
<g>
</g>
<g>
</g>
<g>
</g>
</svg>
