<?xml version="1.0" encoding="iso-8859-1"?>
<!-- Generator: Adobe Illustrator 17.1.0, SVG Export Plug-In . SVG Version: 6.00 Build 0)  -->
<!DOCTYPE svg PUBLIC "-//W3C//DTD SVG 1.1//EN" "http://www.w3.org/Graphics/SVG/1.1/DTD/svg11.dtd">
<svg version="1.1" id="Capa_1" xmlns="http://www.w3.org/2000/svg" xmlns:xlink="http://www.w3.org/1999/xlink" x="0px" y="0px"
	 viewBox="0 0 262.048 262.048" style="enable-background:new 0 0 262.048 262.048;" xml:space="preserve">
<g>
	<path style="fill:#000002;" d="M237.498,77.304H56.649l148.676-62.895c3.815-1.613,5.6-6.015,3.985-9.829
		c-1.614-3.816-6.02-5.6-9.829-3.985L17.672,77.506c-1.066,0.451-1.968,1.126-2.687,1.938C7.349,83.046,2.05,90.817,2.05,99.804
		v139.744c0,12.406,10.094,22.5,22.5,22.5h212.947c12.406,0,22.5-10.094,22.5-22.5V99.804
		C259.998,87.398,249.904,77.304,237.498,77.304z M244.998,239.548c0,4.136-3.364,7.5-7.5,7.5H24.55c-4.136,0-7.5-3.364-7.5-7.5
		V99.804c0-4.136,3.364-7.5,7.5-7.5h212.947c4.136,0,7.5,3.364,7.5,7.5V239.548z"/>
	<path style="fill:#000002;" d="M79.503,116.59c-27.62,0-50.091,22.471-50.091,50.09c0,27.619,22.471,50.089,50.091,50.089
		s50.09-22.47,50.09-50.089C129.592,139.061,107.123,116.59,79.503,116.59z M79.503,201.769c-19.35,0-35.091-15.741-35.091-35.089
		c0-19.349,15.741-35.09,35.091-35.09c19.349,0,35.09,15.741,35.09,35.09C114.592,186.028,98.851,201.769,79.503,201.769z"/>
	<path style="fill:#000002;" d="M220.123,162.138c5.514,0,10-4.486,10-10v-28.14c0-5.514-4.486-10-10-10h-68.188
		c-5.514,0-10,4.486-10,10v28.14c0,5.514,4.486,10,10,10H220.123z M220.124,152.138l-0.001,5v-5H220.124z M151.934,123.998h68.188
		l-0.015,28.14h-68.174V123.998z"/>
	<path style="fill:#000002;" d="M159.885,176.264h-6.197c-4.143,0-7.5,3.357-7.5,7.5c0,4.143,3.357,7.5,7.5,7.5h6.197
		c4.143,0,7.5-3.357,7.5-7.5C167.385,179.621,164.028,176.264,159.885,176.264z"/>
	<path style="fill:#000002;" d="M191.829,176.264h-6.198c-4.143,0-7.5,3.357-7.5,7.5c0,4.143,3.357,7.5,7.5,7.5h6.198
		c4.143,0,7.5-3.357,7.5-7.5C199.329,179.621,195.971,176.264,191.829,176.264z"/>
	<path style="fill:#000002;" d="M223.771,176.264h-6.197c-4.143,0-7.5,3.357-7.5,7.5c0,4.143,3.357,7.5,7.5,7.5h6.197
		c4.143,0,7.5-3.357,7.5-7.5C231.271,179.621,227.914,176.264,223.771,176.264z"/>
	<path style="fill:#000002;" d="M159.885,198.508h-6.197c-4.143,0-7.5,3.357-7.5,7.5c0,4.142,3.357,7.5,7.5,7.5h6.197
		c4.143,0,7.5-3.358,7.5-7.5C167.385,201.866,164.028,198.508,159.885,198.508z"/>
	<path style="fill:#000002;" d="M191.829,198.508h-6.198c-4.143,0-7.5,3.357-7.5,7.5c0,4.142,3.357,7.5,7.5,7.5h6.198
		c4.143,0,7.5-3.358,7.5-7.5C199.329,201.866,195.971,198.508,191.829,198.508z"/>
	<path style="fill:#000002;" d="M223.771,198.508h-6.197c-4.143,0-7.5,3.357-7.5,7.5c0,4.142,3.357,7.5,7.5,7.5h6.197
		c4.143,0,7.5-3.358,7.5-7.5C231.271,201.866,227.914,198.508,223.771,198.508z"/>
</g>
<g>
</g>
<g>
</g>
<g>
</g>
<g>
</g>
<g>
</g>
<g>
</g>
<g>
</g>
<g>
</g>
<g>
</g>
<g>
</g>
<g>
</g>
<g>
</g>
<g>
</g>
<g>
</g>
<g>
</g>
</svg>
