<?xml version="1.0" encoding="utf-8"?>
<!-- Generator: Adobe Illustrator 24.1.1, SVG Export Plug-In . SVG Version: 6.00 Build 0)  -->
<svg version="1.1" id="Layer_1" xmlns="http://www.w3.org/2000/svg" xmlns:xlink="http://www.w3.org/1999/xlink" x="0px" y="0px"
	 viewBox="0 0 512 512" style="enable-background:new 0 0 512 512;" xml:space="preserve">
<g>
	<path d="M343.6,369.9c-18.2,21.1-28.4,59.5-15.1,71.9c12.7,9.5,46.9,8.3,72.2-26.3c18.4-23.1,12.2-61.7,1.7-72
		c-15.6-11.8-37.9,3.5-58.8,26.6V369.9z M171.8,376.3c-19.4-22.2-44.6-35.3-60.8-25.6c-10.9,8.1-12.9,36,2.6,63.3
		c23,32.5,55.4,35.8,68.8,27.9C196.4,431.5,188.7,396.2,171.8,376.3L171.8,376.3z M259.4,443.3c-23.6-0.5-59.8,9.4-59.3,22.1
		c-0.4,8.6,28.4,33.5,57.8,32.3c28.2,0.6,57.5-24.3,57.2-35.2c-0.1-11.2-31.9-19.8-55.6-18.8L259.4,443.3z M257.8,145.9
		c-27.2-0.7-53.4,19.9-53.4,31.8c-0.1,14.5,21.5,29.3,53.6,29.8c32.9,0.1,53.7-11.9,54-26.9c0.3-16.9-29.8-34.9-53.8-34.7
		L257.8,145.9z M192.2,157.2c-45.5-7.3-83.4,19.2-81.9,68.1c1.5,18.8,98.8-64.8,82-67.7L192.2,157.2z M400.2,226.6
		c1.5-48.6-36.4-75.1-82-67.8C301.5,161.7,398.7,245.5,400.2,226.6z M408,244.2c-26.4-7-8.9,107.8,12.6,98.5
		c23.7-18.6,31.2-73.6-12.6-98.2V244.2z M90.1,343.9c21.5,9.6,39-105.2,12.6-98.2c-43.7,24.7-36.2,79.6-12.6,98.5V343.9z M291.1,217
		c-24.5,16-28.9,51.8-9.8,79.9c19,28.2,54.3,38.7,78.7,23c24.5-15.6,28.9-51.4,9.9-79.9c-19.1-28.4-54.3-38.7-78.7-22.7V217z
		 M225,219.9c-24.4-15.7-59.8-5.4-78.7,22.7c-19.1,28.5-14.7,64.3,9.8,80.3c24.4,16,59.7,5.7,78.8-22.7c18.8-28.2,14.3-64-9.9-79.9
		L225,219.9z M318.1,372.7c-0.2-29.7-26.7-53.7-59.2-53.3c-32.6,0.3-58.9,24.2-58.8,54v0.6c0.2,29.8,26.8,53.8,59.3,53.4
		c32.6,0,58.8-24.2,58.5-53.7V373L318.1,372.7z M386.6,49.8c-49.3,25.3-77.9,45.4-93.7,62.7c8.1,32,50,33.3,65.4,32.3
		c-3.2-1.2-5.8-3.2-6.8-5.6c3.8-2.6,17.5-0.3,27.1-5.5c-3.7-0.6-5.4-1.3-7.1-4.2c9-2.8,18.7-5.1,24.3-9.9c-3,0-5.9,0.7-9.9-1.9
		c8-4.1,16.6-7.7,23.3-14c-4.2,0-8.7,0-9.9-1.6c7.3-4.5,13.5-9.3,18.7-15.1c-5.8,1-8.3,0.4-9.7-0.6c5.6-5.5,12.7-10.3,16-17.4
		c-4.3,1.7-8.3,1.9-11.1,0c2-4.1,10.1-6.6,14.7-16.6c-4.6,0.7-9.4,1-10.4,0c2.2-8.3,5.8-13.1,9.3-18.2c-9.7,0-24.6,0-23.9-0.6l6-6.1
		c-9.5-2.6-19.3,0.3-26.4,2.6c-3.1-2.2,0-5.5,3.9-8.7c-8.3,1.3-15.6,2.9-22,5.5c-3.5-3.3,2.2-6.1,5.1-9.3
		c-12.8,2.6-17.9,5.8-23.3,8.9c-3.8-3.5-0.3-6.7,2.3-9.5c-9.6,3.5-14.4,7.9-19.5,12.1c-1.9-2.2-4.5-3.8-1.3-9.6
		c-6.7,3.8-11.8,8.3-15.7,13.4c-4.1-2.8-2.5-6.4-2.5-9.6c-7.1,5.7-11.5,11.5-16.9,17.3c-1.3-0.7-2.3-3.3-2.9-7.4
		c-16.6,16-40.3,56-6.1,71.6c28.7-23.3,63.6-40.6,102-53.4L386.6,49.8z M125.1,49.8c38.3,12.9,72.9,30.1,101.9,53.7
		c34-16,10.5-56-6.1-71.6c-0.8,4.1-1.7,7-2.8,7.7c-5.4-5.8-9.8-11.6-16.8-17.3c0,3.2,1.7,7.1-2.5,9.6c-3.7-5.1-8.8-9.6-15.4-13.4
		c3.2,5.5,0.5,7.1-1.3,9.6c-5.1-4.7-9.9-9.2-19.1-12.7c2.6,3.1,6.4,6.4,2.6,9.9c-5.1-3.2-10.6-6.4-23-9c2.8,3.2,8.6,6.4,5.1,9.7
		c-6.8-2.7-14.1-4.6-22.1-5.6c3.8,3.2,7.2,6.2,4.1,8.7c-7.3-2.6-17.2-5.4-26.8-2.8l6,6c0.7,0.8-14,0.7-23.9,0.8
		c3.6,4.9,7.3,9.6,9.3,18.2c-1,0.9-5.8,0.3-10.3,0c4.8,9.6,12.7,12.2,14.7,16.3c-2.8,2-6.7,1.6-11.1,0c3.5,6.7,10.6,11.5,16,17.3
		c-1.6,0.9-3.8,1.6-9.9,0.8c5.1,5.5,11.1,10.5,18.6,15c-1.3,1.5-5.8,1.4-10.3,1.6c6.7,6.5,15.3,9.9,23.3,14.2
		c-4.2,2.9-7.1,2.3-9.9,2.3c5.4,4.7,15.3,7,24.3,9.8c-2,2.9-3.5,3.6-7.4,4.2c9.6,5.4,23,2.9,26.9,5.8c-1,2.6-3.5,4.5-6.7,5.8
		c15.3,0.9,57.6-0.3,65.6-32.3c-15.8-17.2-44.5-37.4-93.8-62.3L125.1,49.8z M162.1,2.2c5-0.1,9.2,2.9,13.9,4.3
		c11.3-3.7,13.8,1.3,19.3,3.4c12.3-2.6,16.1,3,22,8.9l6.9-0.3c18.6,10.8,27.8,32.8,31.1,44.1c3.3-11.3,12.5-33.3,31.1-44.1l6.8,0.2
		c5.9-6,9.7-11.5,22-8.9c5.6-2.3,8.1-7,19.4-3.5c7.1-2.3,13.3-8,22.6-1c7.8-3.2,15.5-4.2,22.3,1.9c10.6-1.3,13.9,1.3,16.5,4.5
		c2.4,0,17.3-2.3,24.2,7.7c17.3-1.9,22.8,9.9,16.5,21.1c3.6,5.4,7.3,10.6-1,20.9c3.2,5.8,1.2,11.8-5.8,19.4c2,8-1.6,13.5-7.9,17.9
		c1.3,10.9-10.2,17.4-13.4,19.5c-1.3,6.4-3.9,12.5-17,15.7c-1.9,9.6-9.9,11.2-17.6,13.1c25.3,14.4,46.7,33.2,46.7,79.6l3.9,6.4
		c28.8,17.3,54.7,72.6,14.3,117.7c-2.5,14-7,23.9-10.9,35.1c-5.8,45.1-44.4,66.2-54.6,68.8c-14.7,11.1-30.7,21.7-52.1,29.1
		C301.1,504,279.1,512,257.3,512h-1.9c-22.1,0-44.1-8-64.3-28.5c-21.5-7.3-37.5-17.8-52.2-29.1c-10.3-2.5-48.7-23.6-54.7-68.7
		c-4-11.2-8.4-21.4-11-35.5c-40.4-45.1-14.6-100.3,14.2-117.7l3.7-6.3c0-46.3,21.4-65.2,46.7-79.6c-7.7-1.9-15.3-3.5-17.5-13.2
		c-13.2-3.2-15.8-9.3-17-15.7c-3.2-2.2-14.7-8.6-13.4-19.7c-6.4-4.5-9.9-9.9-8-18.3c-6.7-7.3-8.6-13.7-5.8-19.5
		c-8.3-10.2-4.5-15.7-1-20.8C69,28.3,74.5,16.3,91.7,18.2c6.7-9.9,21.7-7.7,23.9-7.7c2.6-3.3,6.1-6.1,16.7-4.8
		c6.7-6.1,14.4-5.1,22.3-2.2c3.3-2.6,6.1-3.5,8.7-3.5L162.1,2.2z"/>
</g>
</svg>
