<svg id="Capa_1" enable-background="new 0 0 512 512" height="512" viewBox="0 0 512 512" width="512" xmlns="http://www.w3.org/2000/svg"><g><path d="m467 271h-151c-24.813 0-45 20.187-45 45s20.187 45 45 45h151c24.813 0 45-20.187 45-45s-20.187-45-45-45zm0 60h-151c-8.271 0-15-6.729-15-15s6.729-15 15-15h151c8.271 0 15 6.729 15 15s-6.729 15-15 15z"/><path d="m196 151h-151c-24.813 0-45 20.187-45 45s20.187 45 45 45h151c24.813 0 45-20.187 45-45s-20.187-45-45-45zm0 60h-151c-8.271 0-15-6.729-15-15s6.729-15 15-15h151c8.271 0 15 6.729 15 15s-6.729 15-15 15z"/><path d="m316 241c24.813 0 45-20.187 45-45v-151c0-24.813-20.187-45-45-45s-45 20.187-45 45v151c0 24.813 20.187 45 45 45zm-15-196c0-8.271 6.729-15 15-15s15 6.729 15 15v151c0 8.271-6.729 15-15 15s-15-6.729-15-15z"/><path d="m196 271c-24.813 0-45 20.187-45 45v151c0 24.813 20.187 45 45 45s45-20.187 45-45v-151c0-24.813-20.187-45-45-45zm15 196c0 8.271-6.729 15-15 15s-15-6.729-15-15v-151c0-8.271 6.729-15 15-15s15 6.729 15 15z"/><path d="m407 241h45c33.084 0 60-26.916 60-60s-26.916-60-60-60-60 26.916-60 60v45c0 8.284 6.716 15 15 15zm15-60c0-16.542 13.458-30 30-30s30 13.458 30 30-13.458 30-30 30h-30z"/><path d="m105 271h-45c-33.084 0-60 26.916-60 60s26.916 60 60 60 60-26.916 60-60v-45c0-8.284-6.716-15-15-15zm-15 60c0 16.542-13.458 30-30 30s-30-13.458-30-30 13.458-30 30-30h30z"/><path d="m181 0c-33.084 0-60 26.916-60 60s26.916 60 60 60h45c8.284 0 15-6.716 15-15v-45c0-33.084-26.916-60-60-60zm30 90h-30c-16.542 0-30-13.458-30-30s13.458-30 30-30 30 13.458 30 30z"/><path d="m331 392h-45c-8.284 0-15 6.716-15 15v45c0 33.084 26.916 60 60 60s60-26.916 60-60-26.916-60-60-60zm0 90c-16.542 0-30-13.458-30-30v-30h30c16.542 0 30 13.458 30 30s-13.458 30-30 30z"/></g></svg>