<?xml version="1.0" encoding="UTF-8" standalone="no"?> <svg id="Layer_1" data-name="Layer 1" xmlns="http://www.w3.org/2000/svg" viewBox="0 0 128 128"><defs><style>.cls-1{fill:#2e79bd;}.cls-2{fill:#2d3e50;}</style></defs><title>b</title><path class="cls-1" d="M64.12712,49.153a2.56353,2.56353,0,0,0,2.56077-2.56055V41.38156a2.56088,2.56088,0,1,0-5.12175,0v5.21093A2.56358,2.56358,0,0,0,64.12712,49.153Z"/><path class="cls-1" d="M83.31228,57.20535a2.5438,2.5438,0,0,0,1.811-.75047L88.808,52.77059a2.56086,2.56086,0,1,0-3.62171-3.6215l-3.68472,3.68472a2.561,2.561,0,0,0,1.81073,4.37153Z"/><path class="cls-1" d="M88.624,73.90431a2.56353,2.56353,0,0,0,2.56077,2.56055h5.21071a2.56077,2.56077,0,1,0,0-5.12154H91.18473A2.5639,2.5639,0,0,0,88.624,73.90431Z"/><path class="cls-1" d="M84.94337,91.27874a2.56086,2.56086,0,1,0-3.62171,3.6215L85.00638,98.585a2.56086,2.56086,0,1,0,3.62171-3.6215Z"/><path class="cls-1" d="M63.87291,98.40094a2.56393,2.56393,0,0,0-2.56079,2.561v5.21049a2.56078,2.56078,0,1,0,5.12156,0v-5.21049A2.56392,2.56392,0,0,0,63.87291,98.40094Z"/><path class="cls-1" d="M42.87677,91.09909,39.192,94.78379a2.56086,2.56086,0,0,0,3.62171,3.6215l3.6847-3.68472a2.56084,2.56084,0,0,0-3.62168-3.62147Z"/><path class="cls-1" d="M39.37607,73.6501a2.56394,2.56394,0,0,0-2.56077-2.561h-5.211a2.56078,2.56078,0,0,0,0,5.12156h5.211A2.56357,2.56357,0,0,0,39.37607,73.6501Z"/><path class="cls-1" d="M42.99362,48.96945a2.56071,2.56071,0,1,0-3.62171,3.62106l3.68472,3.6847a2.56085,2.56085,0,1,0,3.62171-3.62147Z"/><path class="cls-2" d="M81.40125,73.90431a2.1738,2.1738,0,0,0-2.17116-2.17159h-9.526a6.22238,6.22238,0,1,0,0,4.34275h9.526A2.17371,2.17371,0,0,0,81.40125,73.90431Z"/><path class="cls-2" d="M108.701,46.855l6.09114-4.42633a1.73317,1.73317,0,0,0,.38324-2.42089l-7.32239-10.077a1.73317,1.73317,0,0,0-2.42065-.38345l-6.97142,5.06376A52.04906,52.04906,0,0,0,71.29848,22.09373V13.95411H75.345a5.97154,5.97154,0,1,0,0-11.94309h-22.69a5.97154,5.97154,0,1,0,0,11.94309h4.04647v8.12035A52.04956,52.04956,0,0,0,29.53907,34.59182l-6.97139-5.06376a1.7332,1.7332,0,0,0-2.42067.38345l-7.32236,10.077a1.73312,1.73312,0,0,0,.38324,2.42089L19.299,46.83569a52.184,52.184,0,0,0,44.695,79.13385v.01944a52.1841,52.1841,0,0,0,44.707-79.134ZM64.006,115.81508V115.796A42.02853,42.02853,0,0,1,63.994,31.7389V31.758a42.02853,42.02853,0,0,1,.01191,84.05706Z"/></svg>